<svg width="160" height="56" viewBox="0 0 160 56" fill="none" xmlns="http://www.w3.org/2000/svg">
<rect width="160" height="56" rx="13" fill="#0A0A0A"/>
<path d="M43 34.6667V21.3333C42.9994 20.7488 42.8451 20.1747 42.5526 19.6686C42.26 19.1625 41.8396 18.7423 41.3333 18.45L29.6667 11.7833C29.1599 11.4908 28.5851 11.3367 28 11.3367C27.4149 11.3367 26.8401 11.4908 26.3333 11.7833L14.6667 18.45C14.1604 18.7423 13.74 19.1625 13.4474 19.6686C13.1549 20.1747 13.0006 20.7488 13 21.3333V34.6667C13.0006 35.2512 13.1549 35.8253 13.4474 36.3314C13.74 36.8375 14.1604 37.2577 14.6667 37.55L26.3333 44.2167C26.8401 44.5092 27.4149 44.6632 28 44.6632C28.5851 44.6632 29.1599 44.5092 29.6667 44.2167L41.3333 37.55C41.8396 37.2577 42.26 36.8375 42.5526 36.3314C42.8451 35.8253 42.9994 35.2512 43 34.6667Z" stroke="#06F08D" stroke-width="2" stroke-linecap="round" stroke-linejoin="round"/>
<path d="M13.45 19.6L28 28.0167L42.55 19.6" stroke="#06F08D" stroke-width="2" stroke-linecap="round" stroke-linejoin="round"/>
<path d="M28 44.8V28" stroke="#06F08D" stroke-width="2" stroke-linecap="round" stroke-linejoin="round"/>
<path d="M52.9659 22.017V20.4545H63.875V22.017H59.3011V35H57.5398V22.017H52.9659ZM69.358 35.2273C68.3068 35.2273 67.4001 34.9953 66.6378 34.5312C65.8802 34.0625 65.2955 33.4091 64.8835 32.571C64.4763 31.7282 64.2727 30.7481 64.2727 29.6307C64.2727 28.5133 64.4763 27.5284 64.8835 26.6761C65.2955 25.8191 65.8684 25.1515 66.6023 24.6733C67.3409 24.1903 68.2027 23.9489 69.1875 23.9489C69.7557 23.9489 70.3168 24.0436 70.8707 24.233C71.4247 24.4223 71.929 24.7301 72.3835 25.1562C72.8381 25.5777 73.2003 26.1364 73.4702 26.8324C73.7401 27.5284 73.875 28.3854 73.875 29.4034V30.1136H65.4659V28.6648H72.1705C72.1705 28.0492 72.0473 27.5 71.8011 27.017C71.5597 26.5341 71.214 26.1529 70.7642 25.8736C70.3191 25.5942 69.7936 25.4545 69.1875 25.4545C68.5199 25.4545 67.9422 25.6203 67.4545 25.9517C66.9716 26.2784 66.5999 26.7045 66.3395 27.2301C66.0791 27.7557 65.9489 28.3191 65.9489 28.9205V29.8864C65.9489 30.7102 66.0909 31.4086 66.375 31.9815C66.6638 32.5497 67.0639 32.983 67.5753 33.2812C68.0866 33.5748 68.6809 33.7216 69.358 33.7216C69.7983 33.7216 70.196 33.66 70.5511 33.5369C70.911 33.4091 71.2211 33.2197 71.4815 32.9688C71.742 32.7131 71.9432 32.3958 72.0852 32.017L73.7045 32.4716C73.5341 33.0208 73.2476 33.5038 72.8452 33.9205C72.4427 34.3324 71.9455 34.6544 71.3537 34.8864C70.7618 35.1136 70.0966 35.2273 69.358 35.2273ZM80.8565 35.2273C79.8338 35.2273 78.9531 34.9858 78.2145 34.5028C77.4759 34.0199 76.9077 33.3546 76.5099 32.5071C76.1122 31.6596 75.9134 30.6913 75.9134 29.6023C75.9134 28.4943 76.117 27.5166 76.5241 26.669C76.9361 25.8168 77.509 25.1515 78.2429 24.6733C78.9815 24.1903 79.8433 23.9489 80.8281 23.9489C81.5952 23.9489 82.2865 24.0909 82.902 24.375C83.5175 24.6591 84.0218 25.0568 84.4148 25.5682C84.8078 26.0795 85.0516 26.6761 85.1463 27.358H83.4702C83.3423 26.8608 83.0582 26.4205 82.6179 26.0369C82.1823 25.6487 81.5952 25.4545 80.8565 25.4545C80.2031 25.4545 79.6302 25.625 79.1378 25.9659C78.6501 26.3021 78.2689 26.7779 77.9943 27.3935C77.7244 28.0043 77.5895 28.7216 77.5895 29.5455C77.5895 30.3883 77.7221 31.1222 77.9872 31.7472C78.2571 32.3722 78.6359 32.8575 79.1236 33.2031C79.616 33.5488 80.1937 33.7216 80.8565 33.7216C81.2921 33.7216 81.6875 33.6458 82.0426 33.4943C82.3977 33.3428 82.6984 33.125 82.9446 32.8409C83.1908 32.5568 83.366 32.2159 83.4702 31.8182H85.1463C85.0516 32.4621 84.8172 33.0421 84.4432 33.5582C84.0739 34.0696 83.5838 34.4768 82.973 34.7798C82.367 35.0781 81.6615 35.2273 80.8565 35.2273ZM89.2727 28.4375V35H87.5966V20.4545H89.2727V25.7955H89.4148C89.6705 25.232 90.054 24.7846 90.5653 24.4531C91.0814 24.117 91.768 23.9489 92.625 23.9489C93.3684 23.9489 94.0194 24.098 94.5781 24.3963C95.1368 24.6899 95.5701 25.142 95.8778 25.7528C96.1903 26.3589 96.3466 27.1307 96.3466 28.0682V35H94.6705V28.1818C94.6705 27.3153 94.4455 26.6454 93.9957 26.1719C93.5507 25.6937 92.9328 25.4545 92.142 25.4545C91.5928 25.4545 91.1004 25.5705 90.6648 25.8026C90.2339 26.0346 89.893 26.3731 89.642 26.8182C89.3958 27.2633 89.2727 27.803 89.2727 28.4375ZM107.595 24.0909C107.51 23.3712 107.164 22.8125 106.558 22.4148C105.952 22.017 105.208 21.8182 104.328 21.8182C103.684 21.8182 103.12 21.9223 102.637 22.1307C102.159 22.339 101.785 22.6255 101.515 22.9901C101.25 23.3546 101.118 23.7689 101.118 24.233C101.118 24.6212 101.21 24.955 101.395 25.2344C101.584 25.509 101.825 25.7386 102.119 25.9233C102.413 26.1032 102.72 26.2524 103.042 26.3707C103.364 26.4844 103.66 26.5767 103.93 26.6477L105.407 27.0455C105.786 27.1449 106.208 27.2822 106.672 27.4574C107.14 27.6326 107.588 27.8717 108.014 28.1747C108.445 28.473 108.8 28.8565 109.079 29.3253C109.359 29.794 109.498 30.3693 109.498 31.0511C109.498 31.8371 109.292 32.5473 108.88 33.1818C108.473 33.8163 107.877 34.3205 107.091 34.6946C106.309 35.0687 105.36 35.2557 104.243 35.2557C103.201 35.2557 102.299 35.0876 101.537 34.7514C100.779 34.4152 100.182 33.9465 99.7468 33.3452C99.3159 32.7438 99.0721 32.0455 99.0153 31.25H100.833C100.881 31.7992 101.065 32.2538 101.387 32.6136C101.714 32.9687 102.126 33.2339 102.623 33.4091C103.125 33.5795 103.665 33.6648 104.243 33.6648C104.915 33.6648 105.519 33.5559 106.054 33.3381C106.589 33.1155 107.012 32.8078 107.325 32.4148C107.637 32.017 107.794 31.553 107.794 31.0227C107.794 30.5398 107.659 30.1468 107.389 29.8438C107.119 29.5407 106.764 29.2945 106.324 29.1051C105.883 28.9157 105.407 28.75 104.896 28.608L103.106 28.0966C101.97 27.7699 101.07 27.3035 100.407 26.6974C99.7444 26.0914 99.413 25.2983 99.413 24.3182C99.413 23.5038 99.6332 22.7936 100.074 22.1875C100.519 21.5767 101.115 21.1032 101.863 20.767C102.616 20.4261 103.457 20.2557 104.385 20.2557C105.322 20.2557 106.155 20.4238 106.885 20.7599C107.614 21.0914 108.191 21.5459 108.618 22.1236C109.048 22.7012 109.276 23.357 109.299 24.0909H107.595ZM116.911 24.0909V25.5114H111.258V24.0909H116.911ZM112.906 21.4773H114.582V31.875C114.582 32.3485 114.65 32.7036 114.788 32.9403C114.93 33.1723 115.11 33.3286 115.327 33.4091C115.55 33.4848 115.784 33.5227 116.031 33.5227C116.215 33.5227 116.367 33.5133 116.485 33.4943C116.603 33.4706 116.698 33.4517 116.769 33.4375L117.11 34.9432C116.996 34.9858 116.838 35.0284 116.634 35.071C116.431 35.1184 116.173 35.142 115.86 35.142C115.387 35.142 114.923 35.0402 114.468 34.8366C114.018 34.633 113.644 34.3229 113.346 33.9062C113.052 33.4896 112.906 32.964 112.906 32.3295V21.4773ZM123.747 35.2273C122.762 35.2273 121.898 34.9929 121.155 34.5241C120.416 34.0554 119.839 33.3996 119.422 32.5568C119.01 31.714 118.804 30.7292 118.804 29.6023C118.804 28.4659 119.01 27.474 119.422 26.6264C119.839 25.7789 120.416 25.1207 121.155 24.652C121.898 24.1832 122.762 23.9489 123.747 23.9489C124.732 23.9489 125.594 24.1832 126.332 24.652C127.076 25.1207 127.653 25.7789 128.065 26.6264C128.482 27.474 128.69 28.4659 128.69 29.6023C128.69 30.7292 128.482 31.714 128.065 32.5568C127.653 33.3996 127.076 34.0554 126.332 34.5241C125.594 34.9929 124.732 35.2273 123.747 35.2273ZM123.747 33.7216C124.495 33.7216 125.111 33.5298 125.594 33.1463C126.077 32.7628 126.434 32.2585 126.666 31.6335C126.898 31.0085 127.014 30.3314 127.014 29.6023C127.014 28.8731 126.898 28.1937 126.666 27.5639C126.434 26.9342 126.077 26.4252 125.594 26.0369C125.111 25.6487 124.495 25.4545 123.747 25.4545C122.999 25.4545 122.384 25.6487 121.901 26.0369C121.418 26.4252 121.06 26.9342 120.828 27.5639C120.596 28.1937 120.48 28.8731 120.48 29.6023C120.48 30.3314 120.596 31.0085 120.828 31.6335C121.06 32.2585 121.418 32.7628 121.901 33.1463C122.384 33.5298 122.999 33.7216 123.747 33.7216ZM135.681 35.2273C134.658 35.2273 133.777 34.9858 133.039 34.5028C132.3 34.0199 131.732 33.3546 131.334 32.5071C130.936 31.6596 130.738 30.6913 130.738 29.6023C130.738 28.4943 130.941 27.5166 131.348 26.669C131.76 25.8168 132.333 25.1515 133.067 24.6733C133.806 24.1903 134.667 23.9489 135.652 23.9489C136.419 23.9489 137.111 24.0909 137.726 24.375C138.342 24.6591 138.846 25.0568 139.239 25.5682C139.632 26.0795 139.876 26.6761 139.971 27.358H138.294C138.167 26.8608 137.882 26.4205 137.442 26.0369C137.007 25.6487 136.419 25.4545 135.681 25.4545C135.027 25.4545 134.454 25.625 133.962 25.9659C133.474 26.3021 133.093 26.7779 132.819 27.3935C132.549 28.0043 132.414 28.7216 132.414 29.5455C132.414 30.3883 132.546 31.1222 132.811 31.7472C133.081 32.3722 133.46 32.8575 133.948 33.2031C134.44 33.5488 135.018 33.7216 135.681 33.7216C136.116 33.7216 136.512 33.6458 136.867 33.4943C137.222 33.3428 137.523 33.125 137.769 32.8409C138.015 32.5568 138.19 32.2159 138.294 31.8182H139.971C139.876 32.4621 139.641 33.0421 139.267 33.5582C138.898 34.0696 138.408 34.4768 137.797 34.7798C137.191 35.0781 136.486 35.2273 135.681 35.2273ZM143.983 31.0227L143.955 28.9489H144.296L149.069 24.0909H151.142L146.057 29.233H145.915L143.983 31.0227ZM142.421 35V20.4545H144.097V35H142.421ZM149.353 35L145.091 29.6023L146.284 28.4375L151.483 35H149.353Z" fill="#FEFEFE"/>
</svg>
