<svg width="144" height="41" viewBox="0 0 144 41" fill="none" xmlns="http://www.w3.org/2000/svg">
<path d="M35 27.1666V13.8333C34.9994 13.2488 34.8451 12.6747 34.5526 12.1686C34.26 11.6625 33.8396 11.2422 33.3333 10.95L21.6667 4.28331C21.1599 3.99075 20.5851 3.83673 20 3.83673C19.4149 3.83673 18.8401 3.99075 18.3333 4.28331L6.66667 10.95C6.16044 11.2422 5.73997 11.6625 5.44744 12.1686C5.1549 12.6747 5.0006 13.2488 5 13.8333V27.1666C5.0006 27.7512 5.1549 28.3253 5.44744 28.8314C5.73997 29.3375 6.16044 29.7577 6.66667 30.05L18.3333 36.7166C18.8401 37.0092 19.4149 37.1632 20 37.1632C20.5851 37.1632 21.1599 37.0092 21.6667 36.7166L33.3333 30.05C33.8396 29.7577 34.26 29.3375 34.5526 28.8314C34.8451 28.3253 34.9994 27.7512 35 27.1666Z" stroke="#06F08D" stroke-width="2" stroke-linecap="round" stroke-linejoin="round"/>
<path d="M5.45001 12.1L20 20.5166L34.55 12.1" stroke="#06F08D" stroke-width="2" stroke-linecap="round" stroke-linejoin="round"/>
<path d="M20 37.3V20.5" stroke="#06F08D" stroke-width="2" stroke-linecap="round" stroke-linejoin="round"/>
<path d="M44.9659 14.517V12.9545H55.875V14.517H51.3011V27.5H49.5398V14.517H44.9659ZM61.358 27.7273C60.3068 27.7273 59.4001 27.4953 58.6378 27.0312C57.8802 26.5625 57.2955 25.9091 56.8835 25.071C56.4763 24.2282 56.2727 23.2481 56.2727 22.1307C56.2727 21.0133 56.4763 20.0284 56.8835 19.1761C57.2955 18.3191 57.8684 17.6515 58.6023 17.1733C59.3409 16.6903 60.2027 16.4489 61.1875 16.4489C61.7557 16.4489 62.3168 16.5436 62.8707 16.733C63.4247 16.9223 63.929 17.2301 64.3835 17.6562C64.8381 18.0777 65.2003 18.6364 65.4702 19.3324C65.7401 20.0284 65.875 20.8854 65.875 21.9034V22.6136H57.4659V21.1648H64.1705C64.1705 20.5492 64.0473 20 63.8011 19.517C63.5597 19.0341 63.214 18.6529 62.7642 18.3736C62.3191 18.0942 61.7936 17.9545 61.1875 17.9545C60.5199 17.9545 59.9422 18.1203 59.4545 18.4517C58.9716 18.7784 58.5999 19.2045 58.3395 19.7301C58.0791 20.2557 57.9489 20.8191 57.9489 21.4205V22.3864C57.9489 23.2102 58.0909 23.9086 58.375 24.4815C58.6638 25.0497 59.0639 25.483 59.5753 25.7812C60.0866 26.0748 60.6809 26.2216 61.358 26.2216C61.7983 26.2216 62.196 26.16 62.5511 26.0369C62.911 25.9091 63.2211 25.7197 63.4815 25.4688C63.742 25.2131 63.9432 24.8958 64.0852 24.517L65.7045 24.9716C65.5341 25.5208 65.2476 26.0038 64.8452 26.4205C64.4427 26.8324 63.9455 27.1544 63.3537 27.3864C62.7618 27.6136 62.0966 27.7273 61.358 27.7273ZM72.8565 27.7273C71.8338 27.7273 70.9531 27.4858 70.2145 27.0028C69.4759 26.5199 68.9077 25.8546 68.5099 25.0071C68.1122 24.1596 67.9134 23.1913 67.9134 22.1023C67.9134 20.9943 68.117 20.0166 68.5241 19.169C68.9361 18.3168 69.509 17.6515 70.2429 17.1733C70.9815 16.6903 71.8433 16.4489 72.8281 16.4489C73.5952 16.4489 74.2865 16.5909 74.902 16.875C75.5175 17.1591 76.0218 17.5568 76.4148 18.0682C76.8078 18.5795 77.0516 19.1761 77.1463 19.858H75.4702C75.3423 19.3608 75.0582 18.9205 74.6179 18.5369C74.1823 18.1487 73.5952 17.9545 72.8565 17.9545C72.2031 17.9545 71.6302 18.125 71.1378 18.4659C70.6501 18.8021 70.2689 19.2779 69.9943 19.8935C69.7244 20.5043 69.5895 21.2216 69.5895 22.0455C69.5895 22.8883 69.7221 23.6222 69.9872 24.2472C70.2571 24.8722 70.6359 25.3575 71.1236 25.7031C71.616 26.0488 72.1937 26.2216 72.8565 26.2216C73.2921 26.2216 73.6875 26.1458 74.0426 25.9943C74.3977 25.8428 74.6984 25.625 74.9446 25.3409C75.1908 25.0568 75.366 24.7159 75.4702 24.3182H77.1463C77.0516 24.9621 76.8172 25.5421 76.4432 26.0582C76.0739 26.5696 75.5838 26.9768 74.973 27.2798C74.367 27.5781 73.6615 27.7273 72.8565 27.7273ZM81.2727 20.9375V27.5H79.5966V12.9545H81.2727V18.2955H81.4148C81.6705 17.732 82.054 17.2846 82.5653 16.9531C83.0814 16.617 83.768 16.4489 84.625 16.4489C85.3684 16.4489 86.0194 16.598 86.5781 16.8963C87.1368 17.1899 87.5701 17.642 87.8778 18.2528C88.1903 18.8589 88.3466 19.6307 88.3466 20.5682V27.5H86.6705V20.6818C86.6705 19.8153 86.4455 19.1454 85.9957 18.6719C85.5507 18.1937 84.9328 17.9545 84.142 17.9545C83.5928 17.9545 83.1004 18.0705 82.6648 18.3026C82.2339 18.5346 81.893 18.8731 81.642 19.3182C81.3958 19.7633 81.2727 20.303 81.2727 20.9375ZM99.5948 16.5909C99.5096 15.8712 99.1639 15.3125 98.5579 14.9148C97.9518 14.517 97.2085 14.3182 96.3278 14.3182C95.6838 14.3182 95.1204 14.4223 94.6374 14.6307C94.1592 14.839 93.7852 15.1255 93.5153 15.4901C93.2501 15.8546 93.1175 16.2689 93.1175 16.733C93.1175 17.1212 93.2099 17.455 93.3945 17.7344C93.5839 18.009 93.8254 18.2386 94.119 18.4233C94.4125 18.6032 94.7203 18.7524 95.0423 18.8707C95.3642 18.9844 95.6602 19.0767 95.93 19.1477L97.4073 19.5455C97.7861 19.6449 98.2075 19.7822 98.6715 19.9574C99.1403 20.1326 99.5877 20.3717 100.014 20.6747C100.445 20.973 100.8 21.3565 101.079 21.8253C101.359 22.294 101.498 22.8693 101.498 23.5511C101.498 24.3371 101.292 25.0473 100.88 25.6818C100.473 26.3163 99.8765 26.8205 99.0906 27.1946C98.3093 27.5687 97.36 27.7557 96.2425 27.7557C95.2009 27.7557 94.2989 27.5876 93.5366 27.2514C92.779 26.9152 92.1824 26.4465 91.7468 25.8452C91.3159 25.2438 91.0721 24.5455 91.0153 23.75H92.8335C92.8808 24.2992 93.0655 24.7538 93.3874 25.1136C93.7141 25.4687 94.1261 25.7339 94.6232 25.9091C95.1251 26.0795 95.6649 26.1648 96.2425 26.1648C96.9149 26.1648 97.5186 26.0559 98.0536 25.8381C98.5887 25.6155 99.0124 25.3078 99.3249 24.9148C99.6374 24.517 99.7937 24.053 99.7937 23.5227C99.7937 23.0398 99.6587 22.6468 99.3888 22.3438C99.119 22.0407 98.7638 21.7945 98.3235 21.6051C97.8832 21.4157 97.4073 21.25 96.896 21.108L95.1062 20.5966C93.9698 20.2699 93.0702 19.8035 92.4073 19.1974C91.7444 18.5914 91.413 17.7983 91.413 16.8182C91.413 16.0038 91.6332 15.2936 92.0735 14.6875C92.5186 14.0767 93.1152 13.6032 93.8633 13.267C94.6161 12.9261 95.4566 12.7557 96.3846 12.7557C97.3221 12.7557 98.1554 12.9238 98.8846 13.2599C99.6138 13.5914 100.191 14.0459 100.618 14.6236C101.048 15.2012 101.276 15.857 101.299 16.5909H99.5948ZM108.911 16.5909V18.0114H103.258V16.5909H108.911ZM104.906 13.9773H106.582V24.375C106.582 24.8485 106.65 25.2036 106.788 25.4403C106.93 25.6723 107.11 25.8286 107.327 25.9091C107.55 25.9848 107.784 26.0227 108.031 26.0227C108.215 26.0227 108.367 26.0133 108.485 25.9943C108.603 25.9706 108.698 25.9517 108.769 25.9375L109.11 27.4432C108.996 27.4858 108.838 27.5284 108.634 27.571C108.431 27.6184 108.173 27.642 107.86 27.642C107.387 27.642 106.923 27.5402 106.468 27.3366C106.018 27.133 105.644 26.8229 105.346 26.4062C105.052 25.9896 104.906 25.464 104.906 24.8295V13.9773ZM115.747 27.7273C114.762 27.7273 113.898 27.4929 113.155 27.0241C112.416 26.5554 111.839 25.8996 111.422 25.0568C111.01 24.214 110.804 23.2292 110.804 22.1023C110.804 20.9659 111.01 19.974 111.422 19.1264C111.839 18.2789 112.416 17.6207 113.155 17.152C113.898 16.6832 114.762 16.4489 115.747 16.4489C116.732 16.4489 117.594 16.6832 118.332 17.152C119.076 17.6207 119.653 18.2789 120.065 19.1264C120.482 19.974 120.69 20.9659 120.69 22.1023C120.69 23.2292 120.482 24.214 120.065 25.0568C119.653 25.8996 119.076 26.5554 118.332 27.0241C117.594 27.4929 116.732 27.7273 115.747 27.7273ZM115.747 26.2216C116.495 26.2216 117.111 26.0298 117.594 25.6463C118.077 25.2628 118.434 24.7585 118.666 24.1335C118.898 23.5085 119.014 22.8314 119.014 22.1023C119.014 21.3731 118.898 20.6937 118.666 20.0639C118.434 19.4342 118.077 18.9252 117.594 18.5369C117.111 18.1487 116.495 17.9545 115.747 17.9545C114.999 17.9545 114.384 18.1487 113.901 18.5369C113.418 18.9252 113.06 19.4342 112.828 20.0639C112.596 20.6937 112.48 21.3731 112.48 22.1023C112.48 22.8314 112.596 23.5085 112.828 24.1335C113.06 24.7585 113.418 25.2628 113.901 25.6463C114.384 26.0298 114.999 26.2216 115.747 26.2216ZM127.681 27.7273C126.658 27.7273 125.777 27.4858 125.039 27.0028C124.3 26.5199 123.732 25.8546 123.334 25.0071C122.936 24.1596 122.738 23.1913 122.738 22.1023C122.738 20.9943 122.941 20.0166 123.348 19.169C123.76 18.3168 124.333 17.6515 125.067 17.1733C125.806 16.6903 126.667 16.4489 127.652 16.4489C128.419 16.4489 129.111 16.5909 129.726 16.875C130.342 17.1591 130.846 17.5568 131.239 18.0682C131.632 18.5795 131.876 19.1761 131.971 19.858H130.294C130.167 19.3608 129.882 18.9205 129.442 18.5369C129.007 18.1487 128.419 17.9545 127.681 17.9545C127.027 17.9545 126.454 18.125 125.962 18.4659C125.474 18.8021 125.093 19.2779 124.819 19.8935C124.549 20.5043 124.414 21.2216 124.414 22.0455C124.414 22.8883 124.546 23.6222 124.811 24.2472C125.081 24.8722 125.46 25.3575 125.948 25.7031C126.44 26.0488 127.018 26.2216 127.681 26.2216C128.116 26.2216 128.512 26.1458 128.867 25.9943C129.222 25.8428 129.523 25.625 129.769 25.3409C130.015 25.0568 130.19 24.7159 130.294 24.3182H131.971C131.876 24.9621 131.641 25.5421 131.267 26.0582C130.898 26.5696 130.408 26.9768 129.797 27.2798C129.191 27.5781 128.486 27.7273 127.681 27.7273ZM135.983 23.5227L135.955 21.4489H136.296L141.069 16.5909H143.142L138.057 21.733H137.915L135.983 23.5227ZM134.421 27.5V12.9545H136.097V27.5H134.421ZM141.353 27.5L137.091 22.1023L138.284 20.9375L143.483 27.5H141.353Z" fill="white"/>
</svg>
